<svg xmlns="http://www.w3.org/2000/svg"  viewBox="0 0 100 100" width="100px" height="100px"><path fill="#6b96d6" d="M57.617,11.007c-2.762-0.831-5.551-1.107-8.391-1.247C32.423,9.079,16.745,22.263,14.652,39.07	c-0.286,1.854-0.342,3.826-0.409,5.695c-0.173,6.252-0.316,12.607-0.407,18.897c-0.959,0.161-1.916,0.353-2.869,0.579	c-2.436,0.578-4.806,2.717-3.717,6.275c2.238,7.307,7.495,15.444,11.604,19.056C19.807,90.409,21.049,91,22.489,91	c1.567,0,2.988-0.757,4.061-1.772c4.458-4.215,9.162-12.3,11.222-18.713c0.902-2.807-0.688-5.631-3.98-6.302	c-1.177-0.24-2.389-0.451-3.63-0.628c-0.097-6.664-0.249-13.39-0.438-20.017c-0.402-8.021,4.26-15.793,11.597-19.32	c5.042-2.633,10.962-1.564,16.296-3.255C62.431,19.495,62.498,12.535,57.617,11.007z"/><circle cx="16.5" cy="73.5" r="3.5" fill="#fff"/><circle cx="16.5" cy="73.5" r="1.567" fill="#4a254b"/><circle cx="28.5" cy="73.5" r="3.5" fill="#fff"/><circle cx="28.5" cy="73.5" r="1.589" fill="#4a254b"/><path fill="#4a254b" d="M22.5,79.589c1.338,0,2.438-1.014,2.575-2.316C25.091,77.124,24.966,77,24.816,77h-4.633 c-0.15,0-0.274,0.124-0.259,0.274C20.062,78.575,21.162,79.589,22.5,79.589z"/><path fill="#6b96d6" d="M92.728,30.476c-2.235-7.297-7.484-15.422-11.587-19.03c-0.951-0.836-2.191-1.426-3.63-1.426	c-1.565,0-2.984,0.756-4.056,1.769c-4.452,4.209-9.149,12.283-11.206,18.687c-0.9,2.803,0.687,5.623,3.974,6.294	c1.172,0.239,2.379,0.45,3.614,0.625c0.097,6.671,0.249,13.404,0.438,20.037c0.402,8.021-4.26,15.794-11.597,19.32	c-5.042,2.633-10.962,1.564-16.296,3.255c-4.814,1.498-4.881,8.458,0,9.987c2.762,0.831,5.551,1.107,8.391,1.247	c16.803,0.681,32.482-12.503,34.574-29.311c0.286-1.854,0.342-3.826,0.409-5.695c0.174-6.258,0.316-12.621,0.407-18.918	c0.954-0.16,1.905-0.351,2.852-0.576C91.449,36.164,93.816,34.028,92.728,30.476z"/><circle cx="71.5" cy="25.536" r="3.5" fill="#fff"/><circle cx="71.5" cy="25.536" r="1.567" fill="#4a254b"/><circle cx="83.5" cy="25.536" r="3.5" fill="#fff"/><circle cx="83.5" cy="25.536" r="1.589" fill="#4a254b"/><path fill="#4a254b" d="M77.5,31.625c1.338,0,2.438-1.014,2.575-2.316c0.016-0.149-0.109-0.274-0.259-0.274l-4.633,0 c-0.15,0-0.274,0.124-0.259,0.274C75.062,30.611,76.162,31.625,77.5,31.625z"/></svg>