<svg xmlns="http://www.w3.org/2000/svg" xmlns:xlink="http://www.w3.org/1999/xlink" viewBox="0,0,256,256" width="100px" height="100px"><g fill="none" fill-rule="nonzero" stroke="none" stroke-width="1" stroke-linecap="butt" stroke-linejoin="miter" stroke-miterlimit="10" stroke-dasharray="" stroke-dashoffset="0" font-family="none" font-weight="none" font-size="none" text-anchor="none" style="mix-blend-mode: normal"><g transform="scale(2.56,2.56)"><path d="M86.675,31.648c-0.996,0.093 -2.008,0.209 -3.031,0.35c-0.925,-1.624 -1.961,-3.184 -3.102,-4.663c-14.556,-19.027 -43.896,-20.775 -59.232,-2.155c-3.15,3.908 2.081,8.99 5.9,5.705c7.938,-6.945 19.889,-8.33 28.853,-3.401c4.133,2.237 7.512,5.689 9.686,9.765c-1.141,0.55 -2.266,1.144 -3.37,1.786c-2.407,1.401 -4.242,4.442 -1.935,7.879c4.738,7.059 12.958,14.029 18.498,16.551c1.284,0.585 2.797,0.813 4.331,0.349c1.669,-0.505 2.938,-1.769 3.753,-3.195c3.388,-5.925 5.791,-16.05 5.917,-23.543c0.057,-3.279 -2.546,-5.774 -6.268,-5.428z" fill="#6b96d6"></path><path d="M81.262,53.336c1.98,-0.599 3.154,-2.594 2.773,-4.581c-0.044,-0.228 -0.283,-0.355 -0.505,-0.288l-6.855,2.075c-0.222,0.067 -0.351,0.306 -0.261,0.52c0.785,1.865 2.869,2.873 4.848,2.274z" fill="#4a254b"></path><path d="M83.489,46.204c-0.429,0 -0.826,-0.278 -0.957,-0.71c-0.27,-0.892 -0.176,-1.835 0.263,-2.656c0.439,-0.821 1.172,-1.422 2.064,-1.691c0.891,-0.271 1.833,-0.176 2.656,0.263c0.821,0.439 1.422,1.172 1.692,2.063c0.16,0.529 -0.139,1.087 -0.667,1.247c-0.525,0.16 -1.086,-0.139 -1.247,-0.667c-0.115,-0.38 -0.372,-0.692 -0.722,-0.88c-0.35,-0.188 -0.753,-0.227 -1.132,-0.112c-0.38,0.115 -0.693,0.371 -0.88,0.722c-0.188,0.35 -0.228,0.752 -0.112,1.132c0.16,0.529 -0.139,1.087 -0.667,1.247c-0.097,0.028 -0.195,0.042 -0.291,0.042z" fill="#4a254b"></path><path d="M70.139,50.245c-0.429,0 -0.826,-0.278 -0.957,-0.71c-0.27,-0.892 -0.176,-1.835 0.263,-2.656c0.439,-0.821 1.172,-1.422 2.064,-1.691c0.89,-0.271 1.833,-0.177 2.656,0.263c0.821,0.439 1.422,1.172 1.692,2.063c0.16,0.529 -0.139,1.087 -0.667,1.247c-0.526,0.16 -1.086,-0.139 -1.247,-0.667c-0.115,-0.38 -0.372,-0.692 -0.722,-0.88c-0.35,-0.188 -0.753,-0.228 -1.132,-0.112c-0.38,0.115 -0.693,0.371 -0.88,0.722c-0.188,0.35 -0.228,0.752 -0.112,1.132c0.16,0.529 -0.139,1.087 -0.667,1.247c-0.097,0.028 -0.195,0.042 -0.291,0.042z" fill="#4a254b"></path><path d="M71.693,70.534c-7.938,6.945 -19.889,8.33 -28.853,3.401c-4.154,-2.248 -7.546,-5.724 -9.719,-9.825c-0.156,-0.318 -0.305,-0.639 -0.446,-0.961c0.677,-0.249 1.351,-0.513 2.019,-0.793c2.569,-1.077 4.781,-3.855 2.94,-7.562c-3.784,-7.614 -11.032,-15.59 -16.198,-18.808c-1.198,-0.746 -2.668,-1.169 -4.249,-0.907c-1.72,0.285 -3.142,1.374 -4.136,2.682c-4.127,5.436 -7.821,15.165 -8.917,22.578c-0.48,3.244 1.778,6.055 5.513,6.194c1.345,0.05 2.724,0.062 4.129,0.029c1.255,2.666 2.789,5.194 4.586,7.522c14.555,19.028 43.896,20.776 59.232,2.156c3.149,-3.909 -2.081,-8.991 -5.901,-5.706z" fill="#6b96d6"></path><path d="M21.459,60.213c2.036,-0.365 3.434,-2.21 3.286,-4.229c-0.017,-0.232 -0.24,-0.386 -0.468,-0.345l-7.05,1.265c-0.229,0.041 -0.384,0.263 -0.319,0.486c0.563,1.945 2.515,3.189 4.551,2.823z" fill="#4a254b"></path><g fill="#4a254b"><path d="M24.614,53.395c-0.475,0 -0.896,-0.34 -0.983,-0.823c-0.164,-0.917 0.038,-1.843 0.57,-2.607c0.532,-0.765 1.33,-1.276 2.247,-1.44c0.918,-0.162 1.843,0.038 2.607,0.569c0.765,0.532 1.276,1.33 1.441,2.247c0.098,0.544 -0.264,1.063 -0.808,1.161c-0.549,0.096 -1.064,-0.265 -1.161,-0.808c-0.07,-0.392 -0.288,-0.731 -0.614,-0.959c-0.326,-0.227 -0.723,-0.315 -1.111,-0.242c-0.392,0.07 -0.732,0.288 -0.958,0.614c-0.227,0.326 -0.313,0.721 -0.243,1.111c0.097,0.544 -0.264,1.063 -0.808,1.161c-0.062,0.011 -0.121,0.016 -0.179,0.016z"></path><path d="M10.885,55.858c-0.475,0 -0.896,-0.34 -0.983,-0.823c-0.165,-0.917 0.038,-1.843 0.569,-2.607c0.532,-0.765 1.33,-1.276 2.247,-1.44c1.888,-0.343 3.708,0.924 4.048,2.816c0.098,0.544 -0.264,1.063 -0.808,1.161c-0.55,0.096 -1.064,-0.265 -1.161,-0.808c-0.145,-0.808 -0.921,-1.344 -1.727,-1.201c-0.391,0.07 -0.731,0.288 -0.958,0.614c-0.227,0.326 -0.313,0.721 -0.243,1.111c0.098,0.544 -0.264,1.063 -0.808,1.161c-0.058,0.012 -0.117,0.016 -0.176,0.016z"></path></g></g></g></svg>